<?xml version="1.0" encoding="utf-8"?>
<!-- Generator: Adobe Illustrator 16.0.0, SVG Export Plug-In . SVG Version: 6.00 Build 0)  -->
<!DOCTYPE svg PUBLIC "-//W3C//DTD SVG 1.1//EN" "http://www.w3.org/Graphics/SVG/1.1/DTD/svg11.dtd">
<svg version="1.1" xmlns="http://www.w3.org/2000/svg" xmlns:xlink="http://www.w3.org/1999/xlink" x="0px" y="0px" width="500px"
	 height="500px" viewBox="0 0 500 500" enable-background="new 0 0 500 500" xml:space="preserve">
<g id="Floor">
	<path id="Floor_1_" fill="#F0F0F0" d="M416.588,245.732c92.003,53.118,92.003,139.24-0.001,192.358s-241.171,53.119-333.175,0
		c-92.003-53.118-92.003-139.24,0.001-192.358S324.584,192.614,416.588,245.732z"/>
</g>
<g id="Shadow">
	<path id="Shadow_2_" fill="#E0E0E0" d="M258.693,364.917c31.726,18.317,31.726,48.016-0.001,66.333
		c-31.727,18.317-83.165,18.317-114.892,0c-31.726-18.317-31.726-48.016,0-66.333C175.528,346.6,226.966,346.6,258.693,364.917z"/>
</g>
<g id="Plants_1_">
	<g id="Plants_11_">
		<g id="XMLID_597_">
			<path id="XMLID_603_" fill="#0C6BA5" d="M432.275,339.403l-9.525-5.5c0,0-2.334-20.402-0.781-36.202
				c2.182-22.203,16.52-48.917,33.626-42.644c17.104,6.274-7.844,28.885-13.396,47.717
				C436.645,321.606,432.275,339.403,432.275,339.403z"/>
			<path id="XMLID_600_" opacity="0.15" d="M432.275,339.403l-9.525-5.5c0,0-2.334-20.402-0.781-36.202
				c2.182-22.203,16.52-48.917,33.626-42.644c17.104,6.274-7.844,28.885-13.396,47.717
				C436.645,321.606,432.275,339.403,432.275,339.403z"/>
			<path id="XMLID_598_" fill="#FFFFFF" d="M427.266,337.088c0.007,0,0.013,0,0.02,0c0.318-0.011,0.568-0.278,0.558-0.597
				c-1.674-49.333,22.885-74.149,23.132-74.394c0.228-0.224,0.23-0.589,0.007-0.815c-0.227-0.227-0.592-0.229-0.815-0.006
				c-0.253,0.249-25.166,25.421-23.477,75.254C426.699,336.843,426.956,337.088,427.266,337.088z"/>
		</g>
		<g id="XMLID_594_">
			<path id="XMLID_596_" fill="#1890FF" d="M438.266,342.833l-6.779-3.914c0,0-1.152-14,5.711-31.007
				c5.976-14.806,20.803-27.089,28.26-24.508c7.457,2.581,7.271,7.869,3.636,13.416S443.338,315.588,438.266,342.833z"/>
			<path id="XMLID_595_" fill="#FFFFFF" d="M434.689,341.345h0.003c0.318-0.001,0.575-0.26,0.574-0.58
				c-0.135-31.192,29.153-52.273,29.45-52.483c0.26-0.184,0.321-0.543,0.137-0.804c-0.182-0.259-0.541-0.323-0.804-0.137
				c-0.3,0.212-30.074,21.644-29.937,53.43C434.115,341.088,434.372,341.345,434.689,341.345z"/>
		</g>
	</g>
	<g id="XMLID_553_">
		<path id="XMLID_592_" fill="#0C6BA5" d="M79.66,327.146l8.796-5.936c0,0,3.872-23.046,0.274-43.289
			c-5.058-28.46-24.686-37.932-31.69-34.958s-8.5,11.463,4.567,27.711C69.317,280.261,79.39,300.647,79.66,327.146z"/>
	</g>
	<g id="XMLID_496_" display="none" opacity="0.15">
		<path id="XMLID_497_" display="inline" d="M79.66,327.146l8.796-5.936c0,0,3.872-23.046,0.274-43.289
			c-5.058-28.46-24.686-37.932-31.69-34.958s-8.5,11.463,4.567,27.711C69.317,280.261,79.39,300.647,79.66,327.146z"/>
	</g>
	<g id="XMLID_494_">
		<path id="XMLID_495_" fill="#FFFFFF" d="M82.681,315.746c-0.029,0-0.059-0.001-0.088-0.005c-0.349-0.042-0.6-0.358-0.558-0.708
			c3.177-26.798-8.136-55.872-20.44-67.44c-0.256-0.24-0.269-0.645-0.028-0.9c0.242-0.254,0.645-0.269,0.901-0.027
			c12.528,11.778,24.057,41.325,20.832,68.518C83.262,315.503,82.993,315.74,82.681,315.746z"/>
	</g>
	<g id="XMLID_259_">
		<g id="XMLID_488_">
			<path id="XMLID_490_" fill="#1890FF" d="M56.62,342.688c-1.396,0.838-5.477-2.189-6.606-2.916
				c-1.934-1.244-3.515-3.027-4.581-5.058c-1.242-2.364-1.592-4.916-1.269-7.563c0.167-1.373,0.525-2.715,0.881-4.051
				c0.35-1.313,0.7-2.625,1.05-3.937c0.346-1.295,0.693-2.634,0.498-3.959c-0.394-2.671-2.807-4.5-4.999-6.077
				c-2.424-1.743-4.958-4.056-5.006-7.28c-0.038-2.487,1.206-4.822,2.709-6.804c1.504-1.981,3.3-3.741,4.652-5.829
				c0.975-1.503,1.723-3.26,1.526-5.04c-0.123-1.105-0.602-2.141-1.151-3.108c-1.179-2.077-2.717-3.97-3.546-6.209
				c-0.829-2.239-0.771-5.046,0.958-6.693c1.419-1.352,3.562-1.578,5.52-1.487c1.811,0.084,3.594,0.867,5.193,1.716
				c5.172,2.746,8.21,8.75,13.682,10.835c2.111,0.804,4.409,0.945,6.603,1.479c2.195,0.535,4.442,1.607,5.492,3.607
				c2.07,3.942-1.534,8.921-0.051,13.12c1.312,3.716,4.974,5.077,7.08,8.408c0.921,1.457,1.16,3.157,1.049,4.877
				c-0.188,2.912-0.572,5.053-1.904,8.313c-1.101,2.694-4.371,7.869-4.371,7.869S56.833,342.559,56.62,342.688z"/>
		</g>
		<g id="XMLID_420_">
			<path id="XMLID_486_" fill="#FFFFFF" d="M70.138,334.396c-0.009,0-0.018,0-0.018,0c-0.361-0.008-0.639-0.3-0.632-0.651
				c0.564-25.317-11.895-53.015-20.719-60.961c-0.261-0.235-0.283-0.638-0.047-0.9c0.236-0.261,0.638-0.281,0.9-0.047
				c9.001,8.106,21.712,36.263,21.141,61.937C70.755,334.117,70.478,334.39,70.138,334.396z"/>
		</g>
		<g id="XMLID_398_">
			<path id="XMLID_418_" fill="#FFFFFF" d="M65.474,303.554c-0.062,0.001-0.126-0.006-0.188-0.025
				c-8.176-2.356-18.314-2.603-18.415-2.605c-0.353-0.008-0.631-0.3-0.624-0.651c0.008-0.351,0.27-0.634,0.652-0.624
				c0.103,0.003,10.402,0.253,18.74,2.656c0.338,0.097,0.534,0.45,0.436,0.789C65.994,303.369,65.746,303.549,65.474,303.554z"/>
		</g>
	</g>
</g>
<g id="Speech_Bubble">
	<g id="XMLID_557_">
		<path id="XMLID_2921_" fill="#455A64" d="M301.159,309.745l-3.794-2.193c-1.195-0.691-2.164-2.371-2.164-3.751L295.2,146.284
			c0-1.381,0.969-3.06,2.165-3.75L402.71,81.713c1.196-0.69,3.135-0.69,4.33,0l3.795,2.19c1.196,0.69,2.165,2.369,2.165,3.75V245.17
			c0,1.38-0.969,3.06-2.165,3.75l-105.347,60.825C304.293,310.436,302.354,310.436,301.159,309.745z"/>
		<path id="XMLID_2933_" fill="#455A64" d="M412.982,87.302c-0.15-1.12-1.061-1.53-2.15-0.9l-105.34,60.83
			c-0.6,0.35-1.13,0.93-1.53,1.61l-8.13-4.69c0.391-0.68,0.93-1.27,1.53-1.62l105.35-60.82c1.19-0.69,3.13-0.69,4.33,0l3.79,2.19
			C411.932,84.532,412.842,86.002,412.982,87.302z"/>
		<path id="XMLID_2932_" fill="#263238" d="M305.122,309.919c-1.2,0.51-2.88,0.45-3.96-0.17l-3.8-2.2
			c-1.19-0.69-2.16-2.37-2.16-3.75V146.282c0-0.69,0.24-1.45,0.63-2.13l8.13,4.69c-0.399,0.68-0.64,1.45-0.64,2.14v157.517
			C303.322,309.739,304.102,310.309,305.122,309.919z"/>
		<path id="XMLID_560_" fill="#37474F" d="M303.323,150.98v157.516c0,1.381,0.97,1.94,2.165,1.25l105.347-60.825
			c1.196-0.69,2.165-2.37,2.165-3.75V87.653c0-1.381-0.969-1.94-2.165-1.25l-105.347,60.826
			C304.293,147.92,303.323,149.599,303.323,150.98z"/>
		<path id="XMLID_2955_" fill="#455A64" d="M278.723,211.022c-1.36-0.81-7.671-4.4-8-4.59c-1-0.61-1.36-2.09-0.431-3.09l24.91-26.72
			l8.12,4.66l-24.9,26.73C277.522,208.972,277.813,210.362,278.723,211.022z"/>
		<path id="XMLID_2927_" fill="#37474F" d="M303.324,181.286l-24.905,26.723c-1.248,1.339-0.194,3.512,1.63,3.362l23.274-1.917
			L303.324,181.286z"/>
	</g>
	<g id="XMLID_492_">
		<path id="XMLID_3091_" fill="#1890FF" d="M358.161,133.202c12.278-7.089,22.231-1.342,22.231,12.834
			c0,14.177-9.953,31.416-22.231,38.505c-12.277,7.089-22.23,1.342-22.23-12.835C335.931,157.529,345.884,140.29,358.161,133.202z"
			/>
		<path id="XMLID_3076_" fill="#FFFFFF" d="M358.005,144.359c3.983-2.3,7.213-0.436,7.213,4.164c0,4.6-3.229,10.192-7.213,12.492
			c-3.982,2.299-7.212,0.436-7.212-4.164S354.022,146.658,358.005,144.359z"/>
		<path id="XMLID_3075_" fill="#FFFFFF" d="M372.219,168.884c0-7.557-5.306-10.62-11.849-6.841l-4.091,2.362
			c-6.544,3.778-11.85,12.967-11.85,20.523v2.061c1.182,0.393,2.464,0.586,3.82,0.589c2.984,0.006,6.345-0.977,9.911-3.037
			c5.334-3.08,10.228-8.077,14.058-13.905V168.884z"/>
	</g>
	<path id="XMLID_3178_" fill="#1890FF" d="M344.079,254.729l28.165-16.262c1.196-0.69,2.165-0.131,2.165,1.25l0.001,9.071
		c0,1.381-0.97,3.06-2.166,3.75l-28.165,16.262c-1.196,0.69-2.165,0.131-2.165-1.25v-9.071
		C341.914,257.099,342.883,255.42,344.079,254.729z"/>
	<path fill="#FAFAFA" d="M330.295,234.466l55.734-32.178c1.435-0.829,2.598-0.157,2.598,1.5v3.375c0,1.657-1.163,3.672-2.598,4.5
		l-55.735,32.178c-1.435,0.829-2.598,0.157-2.598-1.5v-3.376C327.696,237.309,328.859,235.294,330.295,234.466z"/>
	<g>
		<path fill="#FAFAFA" d="M336.813,211.178c0.758-0.438,1.348-0.504,1.768-0.195c0.42,0.308,0.63,0.992,0.63,2.054
			c0,1.063-0.21,1.994-0.63,2.796c-0.42,0.803-1.01,1.423-1.768,1.861l-1.505,0.868v3.229c0,0.106-0.025,0.212-0.075,0.318
			c-0.051,0.107-0.11,0.18-0.18,0.219l-0.761,0.439c-0.069,0.041-0.129,0.037-0.18-0.012c-0.05-0.049-0.075-0.125-0.075-0.231
			v-9.354c0-0.106,0.025-0.213,0.075-0.319c0.051-0.105,0.11-0.18,0.18-0.219L336.813,211.178z M335.308,216.752l1.457-0.842
			c0.357-0.206,0.643-0.479,0.856-0.82c0.213-0.34,0.319-0.779,0.319-1.32s-0.106-0.854-0.319-0.938
			c-0.214-0.084-0.499-0.023-0.856,0.184l-1.457,0.841V216.752z"/>
		<path fill="#FAFAFA" d="M343.404,207.371c0.1-0.058,0.176-0.061,0.226-0.008c0.051,0.054,0.095,0.151,0.132,0.294l2.305,7.821
			c0.006,0.025,0.009,0.057,0.009,0.096c0,0.106-0.025,0.212-0.075,0.318s-0.109,0.18-0.179,0.219l-0.677,0.391
			c-0.125,0.072-0.214,0.082-0.264,0.029c-0.051-0.053-0.084-0.112-0.104-0.18l-0.404-1.373l-2.972,1.717l-0.404,1.84
			c-0.019,0.088-0.054,0.188-0.104,0.299c-0.051,0.111-0.138,0.202-0.264,0.275l-0.677,0.391c-0.069,0.039-0.129,0.035-0.179-0.014
			c-0.051-0.048-0.075-0.125-0.075-0.23c0-0.039,0.003-0.074,0.01-0.107l2.304-10.481c0.038-0.187,0.081-0.334,0.132-0.445
			c0.05-0.11,0.125-0.195,0.226-0.252L343.404,207.371z M343.921,213.43l-1.034-3.529l-1.034,4.723L343.921,213.43z"/>
		<path fill="#FAFAFA" d="M349.574,203.664c0.42-0.242,0.79-0.369,1.109-0.379c0.32-0.012,0.586,0.052,0.8,0.189
			c0.213,0.138,0.374,0.332,0.484,0.582c0.109,0.25,0.171,0.512,0.184,0.784c0.006,0.112-0.018,0.22-0.07,0.323
			c-0.054,0.103-0.115,0.174-0.184,0.214l-0.659,0.38c-0.106,0.063-0.186,0.076-0.239,0.045c-0.053-0.031-0.103-0.088-0.146-0.168
			c-0.094-0.188-0.235-0.315-0.427-0.384c-0.192-0.067-0.476,0.006-0.852,0.224c-0.163,0.094-0.318,0.211-0.465,0.348
			c-0.148,0.139-0.277,0.29-0.386,0.455c-0.11,0.164-0.196,0.338-0.259,0.518c-0.063,0.182-0.094,0.364-0.094,0.547
			c0,0.223,0.029,0.387,0.089,0.492s0.159,0.168,0.301,0.188c0.141,0.021,0.328,0.006,0.56-0.041s0.521-0.111,0.865-0.195
			c0.376-0.092,0.7-0.131,0.974-0.119c0.272,0.012,0.494,0.085,0.667,0.222c0.173,0.138,0.301,0.336,0.386,0.596
			c0.085,0.261,0.127,0.588,0.127,0.983c0,0.435-0.063,0.874-0.188,1.318c-0.125,0.443-0.305,0.865-0.536,1.265
			c-0.232,0.399-0.517,0.774-0.856,1.124c-0.338,0.35-0.718,0.646-1.138,0.889c-0.352,0.203-0.687,0.332-1.006,0.385
			c-0.32,0.055-0.604,0.031-0.851-0.072c-0.248-0.104-0.447-0.285-0.599-0.546c-0.149-0.261-0.234-0.598-0.253-1.012
			c-0.007-0.112,0.018-0.22,0.07-0.323c0.053-0.103,0.114-0.174,0.183-0.214l0.659-0.38c0.106-0.063,0.188-0.08,0.244-0.055
			s0.104,0.085,0.142,0.178c0.044,0.102,0.097,0.196,0.16,0.285c0.063,0.089,0.146,0.151,0.253,0.187s0.24,0.037,0.4,0.009
			c0.16-0.03,0.358-0.113,0.597-0.252c0.188-0.107,0.37-0.234,0.546-0.38c0.175-0.144,0.329-0.306,0.461-0.483
			c0.131-0.177,0.237-0.363,0.319-0.561c0.081-0.197,0.122-0.406,0.122-0.629c0-0.211-0.044-0.359-0.131-0.444
			c-0.088-0.085-0.222-0.123-0.4-0.116c-0.179,0.006-0.399,0.042-0.663,0.107c-0.263,0.064-0.567,0.13-0.912,0.193
			c-0.313,0.065-0.588,0.086-0.823,0.063s-0.43-0.107-0.583-0.25s-0.268-0.35-0.343-0.62s-0.112-0.622-0.112-1.058
			c0-0.434,0.063-0.871,0.188-1.309c0.125-0.439,0.298-0.854,0.518-1.24c0.219-0.388,0.48-0.744,0.785-1.068
			C348.896,204.131,349.224,203.867,349.574,203.664z"/>
		<path fill="#FAFAFA" d="M356.138,199.875c0.421-0.242,0.79-0.369,1.109-0.38c0.32-0.011,0.587,0.052,0.801,0.189
			c0.212,0.138,0.373,0.332,0.483,0.582c0.11,0.251,0.171,0.513,0.184,0.784c0.006,0.113-0.017,0.221-0.07,0.323
			s-0.115,0.175-0.184,0.214l-0.659,0.381c-0.106,0.061-0.186,0.076-0.239,0.044c-0.053-0.032-0.102-0.089-0.146-0.169
			c-0.095-0.187-0.236-0.315-0.428-0.384c-0.191-0.067-0.475,0.006-0.852,0.224c-0.163,0.095-0.317,0.211-0.465,0.349
			c-0.148,0.139-0.276,0.289-0.386,0.454c-0.11,0.165-0.196,0.338-0.259,0.519s-0.094,0.363-0.094,0.547
			c0,0.223,0.029,0.386,0.089,0.491c0.06,0.106,0.159,0.169,0.301,0.188s0.328,0.006,0.56-0.041
			c0.232-0.047,0.521-0.111,0.865-0.195c0.377-0.092,0.7-0.131,0.974-0.12c0.272,0.012,0.495,0.085,0.667,0.222
			c0.173,0.139,0.302,0.336,0.386,0.596c0.085,0.262,0.127,0.588,0.127,0.984c0,0.434-0.063,0.873-0.188,1.318
			c-0.125,0.443-0.305,0.865-0.536,1.264c-0.231,0.4-0.517,0.774-0.856,1.125c-0.338,0.35-0.718,0.646-1.137,0.888
			c-0.353,0.203-0.688,0.332-1.007,0.386c-0.319,0.055-0.604,0.03-0.851-0.073c-0.248-0.103-0.447-0.284-0.598-0.546
			c-0.15-0.261-0.235-0.598-0.254-1.012c-0.006-0.112,0.018-0.22,0.071-0.322c0.052-0.104,0.113-0.175,0.183-0.215l0.658-0.38
			c0.106-0.062,0.188-0.08,0.244-0.054c0.058,0.024,0.104,0.084,0.142,0.178c0.044,0.101,0.098,0.195,0.16,0.285
			c0.063,0.088,0.146,0.15,0.254,0.186c0.106,0.035,0.24,0.037,0.399,0.009c0.16-0.03,0.358-0.113,0.598-0.251
			c0.188-0.108,0.369-0.234,0.545-0.381c0.175-0.144,0.329-0.305,0.461-0.482c0.131-0.178,0.238-0.363,0.32-0.562
			c0.081-0.196,0.121-0.405,0.121-0.628c0-0.212-0.044-0.36-0.131-0.445c-0.088-0.084-0.222-0.123-0.4-0.116
			c-0.178,0.007-0.399,0.042-0.663,0.107c-0.263,0.065-0.567,0.13-0.912,0.194c-0.313,0.064-0.588,0.086-0.823,0.063
			c-0.234-0.024-0.43-0.107-0.582-0.25c-0.154-0.143-0.269-0.35-0.344-0.621c-0.075-0.27-0.112-0.622-0.112-1.057
			c0-0.434,0.063-0.871,0.188-1.31c0.125-0.439,0.298-0.853,0.518-1.24c0.219-0.388,0.48-0.743,0.785-1.068
			S355.787,200.078,356.138,199.875z"/>
		<path fill="#FAFAFA" d="M363.427,201.126l-0.809,4.796c-0.031,0.162-0.071,0.304-0.118,0.422s-0.117,0.206-0.211,0.259
			l-0.763,0.44c-0.094,0.054-0.168,0.052-0.221-0.011c-0.054-0.061-0.089-0.158-0.107-0.291l-1.205-8.441
			c-0.006-0.045-0.009-0.082-0.009-0.11c0-0.106,0.025-0.213,0.075-0.319c0.05-0.105,0.109-0.18,0.179-0.219l0.695-0.402
			c0.063-0.035,0.123-0.041,0.18-0.016c0.056,0.025,0.094,0.104,0.112,0.239l0.79,5.683l0.696-4.268
			c0.013-0.075,0.042-0.18,0.09-0.313c0.046-0.133,0.126-0.232,0.239-0.298l0.771-0.445c0.113-0.065,0.193-0.058,0.24,0.021
			s0.076,0.148,0.089,0.208l0.696,3.465l0.79-6.595c0.019-0.156,0.057-0.278,0.113-0.37c0.056-0.09,0.116-0.154,0.179-0.189
			l0.695-0.402c0.069-0.039,0.129-0.035,0.179,0.014c0.05,0.048,0.075,0.125,0.075,0.231c0,0.028-0.003,0.069-0.009,0.12
			l-1.204,9.832c-0.02,0.156-0.055,0.295-0.107,0.417c-0.054,0.122-0.127,0.211-0.222,0.266l-0.762,0.439
			c-0.095,0.055-0.165,0.05-0.212-0.015c-0.047-0.065-0.086-0.16-0.118-0.287L363.427,201.126z"/>
		<path fill="#FAFAFA" d="M368.11,196.887c0.02-0.551,0.086-1.1,0.202-1.645s0.287-1.059,0.513-1.541
			c0.226-0.482,0.508-0.926,0.846-1.328c0.34-0.404,0.74-0.738,1.205-1.007c0.457-0.265,0.855-0.393,1.193-0.386
			c0.339,0.008,0.621,0.125,0.847,0.352s0.397,0.543,0.517,0.946c0.119,0.405,0.188,0.876,0.208,1.415
			c0.006,0.181,0.011,0.381,0.014,0.601s0.005,0.448,0.005,0.685s-0.002,0.467-0.005,0.69c-0.003,0.225-0.008,0.43-0.014,0.616
			c-0.02,0.553-0.087,1.1-0.202,1.645c-0.116,0.545-0.287,1.059-0.513,1.541s-0.51,0.924-0.851,1.324
			c-0.343,0.4-0.742,0.732-1.199,0.996c-0.465,0.268-0.865,0.398-1.205,0.392c-0.338-0.008-0.62-0.122-0.846-0.345
			c-0.226-0.221-0.396-0.537-0.513-0.949c-0.116-0.41-0.183-0.881-0.202-1.41c-0.006-0.18-0.012-0.379-0.014-0.601
			c-0.004-0.22-0.005-0.448-0.005-0.685s0.001-0.467,0.005-0.69C368.099,197.279,368.104,197.074,368.11,196.887z M372.371,194.499
			c-0.025-0.681-0.171-1.134-0.438-1.362c-0.267-0.227-0.619-0.215-1.058,0.039c-0.439,0.254-0.792,0.648-1.059,1.184
			s-0.413,1.156-0.438,1.866c-0.013,0.374-0.02,0.786-0.02,1.235s0.007,0.852,0.02,1.212c0.024,0.681,0.171,1.132,0.438,1.354
			s0.619,0.207,1.059-0.046c0.438-0.253,0.791-0.646,1.058-1.175c0.267-0.531,0.412-1.15,0.438-1.86
			c0.013-0.374,0.019-0.785,0.019-1.234S372.384,194.859,372.371,194.499z"/>
		<path fill="#FAFAFA" d="M378.032,187.379c0.783-0.452,1.378-0.516,1.786-0.191c0.407,0.325,0.611,0.984,0.611,1.979
			c0,0.705-0.104,1.365-0.314,1.984c-0.211,0.618-0.52,1.166-0.927,1.643l1.298,2.827c0.019,0.047,0.028,0.095,0.028,0.144
			c0,0.086-0.021,0.172-0.062,0.26c-0.04,0.086-0.09,0.145-0.146,0.178l-0.8,0.461c-0.125,0.072-0.218,0.08-0.277,0.023
			c-0.06-0.059-0.102-0.117-0.127-0.18l-1.231-2.664l-1.251,0.723v3.374c0,0.106-0.025,0.212-0.075,0.317
			c-0.051,0.107-0.109,0.18-0.179,0.221l-0.762,0.439c-0.069,0.039-0.128,0.035-0.179-0.014c-0.051-0.048-0.075-0.124-0.075-0.23
			v-9.354c0-0.106,0.024-0.213,0.075-0.318c0.051-0.107,0.109-0.18,0.179-0.221L378.032,187.379z M376.621,192.755l1.363-0.787
			c0.358-0.206,0.643-0.468,0.856-0.784c0.213-0.315,0.319-0.744,0.319-1.285c0-0.54-0.106-0.841-0.319-0.901
			c-0.214-0.06-0.498,0.013-0.856,0.22l-1.363,0.787V192.755z"/>
		<path fill="#FAFAFA" d="M384.7,183.529c0.464-0.268,0.866-0.406,1.208-0.416c0.342-0.008,0.627,0.095,0.856,0.311
			c0.229,0.215,0.403,0.533,0.526,0.955c0.122,0.422,0.195,0.93,0.221,1.523c0.025,0.699,0.025,1.414,0,2.143
			c-0.025,0.623-0.099,1.216-0.221,1.778c-0.123,0.563-0.296,1.083-0.521,1.562c-0.227,0.478-0.507,0.907-0.843,1.289
			c-0.335,0.383-0.728,0.703-1.18,0.964l-2.37,1.368c-0.069,0.04-0.128,0.036-0.179-0.013c-0.05-0.048-0.075-0.124-0.075-0.231
			v-9.354c0-0.105,0.025-0.213,0.075-0.318c0.051-0.106,0.109-0.18,0.179-0.22L384.7,183.529z M386.242,186.635
			c-0.013-0.301-0.052-0.566-0.117-0.793c-0.066-0.227-0.163-0.403-0.292-0.526c-0.129-0.124-0.29-0.185-0.483-0.185
			c-0.195,0.002-0.428,0.08-0.696,0.236l-1.26,0.727v6.515l1.307-0.754c0.257-0.148,0.479-0.332,0.668-0.553
			c0.188-0.219,0.344-0.461,0.47-0.728c0.125-0.266,0.221-0.552,0.287-0.86c0.065-0.309,0.104-0.621,0.117-0.937
			C386.267,188.049,386.267,187.336,386.242,186.635z"/>
	</g>
</g>
<g id="Question_Marks_1_">
	<g>
		<path fill="#1890FF" d="M247.377,38.395c1.748,0.387,3.396,1.006,4.942,1.855s2.858,1.891,3.931,3.123
			c1.073,1.231,1.846,2.631,2.317,4.199c0.472,1.566,0.506,3.262,0.103,5.083c-0.329,1.487-0.848,2.729-1.555,3.722
			c-0.709,0.994-1.521,1.848-2.439,2.561s-1.887,1.338-2.901,1.873c-1.017,0.536-1.979,1.045-2.883,1.525
			c-0.907,0.482-1.728,1.014-2.459,1.592c-0.733,0.579-1.245,1.266-1.538,2.059c-0.166,0.393-0.411,0.708-0.736,0.947
			c-0.327,0.241-0.694,0.314-1.103,0.225l-4.239-0.939c-0.409-0.09-0.739-0.319-0.988-0.687c-0.25-0.367-0.312-0.75-0.184-1.151
			c0.396-1.434,0.983-2.64,1.766-3.617c0.782-0.977,1.65-1.818,2.606-2.523s1.949-1.313,2.979-1.826
			c1.029-0.514,1.988-1.013,2.877-1.499c0.887-0.485,1.645-1.001,2.271-1.544c0.628-0.543,1.028-1.206,1.201-1.987
			c0.313-1.412-0.024-2.706-1.013-3.881c-0.988-1.174-2.468-1.979-4.438-2.416c-3.16-0.7-5.834,0.366-8.021,3.197
			c-0.276,0.368-0.54,0.631-0.788,0.79c-0.251,0.16-0.618,0.186-1.102,0.078l-4.517-1c-0.334-0.074-0.599-0.25-0.79-0.526
			c-0.192-0.276-0.247-0.601-0.165-0.973c0.324-1.293,1.02-2.533,2.082-3.722c1.062-1.188,2.357-2.188,3.882-3.002
			c1.526-0.812,3.232-1.381,5.117-1.704C243.479,37.902,245.406,37.958,247.377,38.395z M242.594,70.566
			c0.408,0.09,0.729,0.317,0.959,0.681c0.232,0.363,0.303,0.749,0.212,1.158l-1.087,4.907c-0.091,0.41-0.317,0.73-0.681,0.961
			c-0.363,0.232-0.748,0.303-1.157,0.212l-4.796-1.062c-0.41-0.092-0.73-0.317-0.962-0.682c-0.232-0.363-0.303-0.748-0.212-1.158
			l1.087-4.908c0.091-0.408,0.317-0.729,0.681-0.961c0.364-0.23,0.749-0.302,1.159-0.211L242.594,70.566z"/>
	</g>
	<g>
		<path fill="#27DEBF" d="M252.716,85.305c1.219-0.199,2.434-0.226,3.644-0.076c1.209,0.148,2.315,0.479,3.319,0.994
			c1.003,0.517,1.856,1.216,2.56,2.1c0.705,0.885,1.16,1.963,1.368,3.232c0.169,1.038,0.154,1.968-0.045,2.785
			c-0.199,0.818-0.502,1.574-0.908,2.267c-0.406,0.691-0.866,1.34-1.381,1.943c-0.514,0.604-1,1.175-1.457,1.716
			c-0.458,0.541-0.848,1.092-1.169,1.65c-0.322,0.558-0.475,1.129-0.459,1.712c-0.006,0.295-0.083,0.56-0.229,0.797
			c-0.148,0.237-0.365,0.379-0.649,0.426l-2.958,0.483c-0.286,0.047-0.556-0.016-0.811-0.188c-0.254-0.171-0.392-0.401-0.412-0.691
			c-0.113-1.021-0.045-1.943,0.207-2.771c0.25-0.826,0.592-1.589,1.024-2.285c0.432-0.696,0.913-1.341,1.442-1.934
			c0.529-0.592,1.016-1.158,1.461-1.698c0.444-0.537,0.798-1.062,1.062-1.57c0.263-0.51,0.351-1.036,0.262-1.582
			c-0.161-0.984-0.709-1.728-1.644-2.229c-0.935-0.5-2.089-0.638-3.464-0.413c-2.205,0.36-3.646,1.729-4.324,4.104
			c-0.083,0.306-0.184,0.542-0.304,0.708c-0.119,0.167-0.348,0.277-0.685,0.332l-3.151,0.516c-0.234,0.038-0.448-0.007-0.643-0.135
			c-0.194-0.129-0.312-0.322-0.354-0.582c-0.123-0.911,0.005-1.885,0.383-2.919c0.376-1.034,0.95-2.007,1.72-2.918
			c0.771-0.912,1.719-1.712,2.844-2.402C250.091,85.986,251.341,85.529,252.716,85.305z M257.884,107.153
			c0.285-0.046,0.549,0.018,0.791,0.191c0.241,0.174,0.385,0.404,0.432,0.688l0.56,3.426c0.047,0.285-0.017,0.549-0.19,0.79
			c-0.174,0.242-0.403,0.385-0.688,0.432l-3.347,0.547c-0.285,0.047-0.549-0.016-0.79-0.189c-0.242-0.174-0.386-0.403-0.433-0.688
			l-0.56-3.426c-0.046-0.284,0.017-0.548,0.19-0.79c0.174-0.241,0.403-0.386,0.688-0.433L257.884,107.153z"/>
	</g>
	<g>
		<path fill="#0583E0" d="M252.716,85.305c1.219-0.199,2.434-0.226,3.644-0.076c1.209,0.148,2.315,0.479,3.319,0.994
			c1.003,0.517,1.856,1.216,2.56,2.1c0.705,0.885,1.16,1.963,1.368,3.232c0.169,1.038,0.154,1.968-0.045,2.785
			c-0.199,0.818-0.502,1.574-0.908,2.267c-0.406,0.691-0.866,1.34-1.381,1.943c-0.514,0.604-1,1.175-1.457,1.716
			c-0.458,0.541-0.848,1.092-1.169,1.65c-0.322,0.558-0.475,1.129-0.459,1.712c-0.006,0.295-0.083,0.56-0.229,0.797
			c-0.148,0.237-0.365,0.379-0.649,0.426l-2.958,0.483c-0.286,0.047-0.556-0.016-0.811-0.188c-0.254-0.171-0.392-0.401-0.412-0.691
			c-0.113-1.021-0.045-1.943,0.207-2.771c0.25-0.826,0.592-1.589,1.024-2.285c0.432-0.696,0.913-1.341,1.442-1.934
			c0.529-0.592,1.016-1.158,1.461-1.698c0.444-0.537,0.798-1.062,1.062-1.57c0.263-0.51,0.351-1.036,0.262-1.582
			c-0.161-0.984-0.709-1.728-1.644-2.229c-0.935-0.5-2.089-0.638-3.464-0.413c-2.205,0.36-3.646,1.729-4.324,4.104
			c-0.083,0.306-0.184,0.542-0.304,0.708c-0.119,0.167-0.348,0.277-0.685,0.332l-3.151,0.516c-0.234,0.038-0.448-0.007-0.643-0.135
			c-0.194-0.129-0.312-0.322-0.354-0.582c-0.123-0.911,0.005-1.885,0.383-2.919c0.376-1.034,0.95-2.007,1.72-2.918
			c0.771-0.912,1.719-1.712,2.844-2.402C250.091,85.986,251.341,85.529,252.716,85.305z M257.884,107.153
			c0.285-0.046,0.549,0.018,0.791,0.191c0.241,0.174,0.385,0.404,0.432,0.688l0.56,3.426c0.047,0.285-0.017,0.549-0.19,0.79
			c-0.174,0.242-0.403,0.385-0.688,0.432l-3.347,0.547c-0.285,0.047-0.549-0.016-0.79-0.189c-0.242-0.174-0.386-0.403-0.433-0.688
			l-0.56-3.426c-0.046-0.284,0.017-0.548,0.19-0.79c0.174-0.241,0.403-0.386,0.688-0.433L257.884,107.153z"/>
	</g>
	<g>
		<path fill="#27DEBF" d="M280.991,90.688c0.279,0.199,0.448,0.472,0.508,0.819c0.058,0.348-0.012,0.661-0.21,0.94l-2.382,3.351
			c-0.199,0.28-0.472,0.449-0.819,0.507c-0.348,0.06-0.661-0.011-0.94-0.209l-3.274-2.328c-0.28-0.199-0.448-0.471-0.507-0.818
			c-0.06-0.349,0.011-0.661,0.21-0.94l2.382-3.352c0.198-0.279,0.47-0.448,0.819-0.507c0.347-0.059,0.659,0.011,0.939,0.21
			L280.991,90.688z M294.845,67.977c1.192,0.847,2.237,1.838,3.132,2.971c0.895,1.134,1.552,2.335,1.966,3.604
			c0.416,1.271,0.552,2.57,0.408,3.901c-0.144,1.332-0.657,2.619-1.542,3.863c-0.722,1.016-1.508,1.785-2.356,2.308
			c-0.85,0.524-1.734,0.908-2.653,1.152c-0.92,0.245-1.848,0.407-2.782,0.488c-0.938,0.08-1.823,0.156-2.659,0.23
			s-1.623,0.213-2.358,0.416c-0.737,0.202-1.342,0.557-1.814,1.061c-0.25,0.243-0.535,0.402-0.857,0.479s-0.622,0.016-0.901-0.183
			l-2.895-2.058c-0.279-0.198-0.455-0.476-0.526-0.832s0.004-0.665,0.229-0.927c0.756-0.954,1.582-1.675,2.483-2.162
			c0.9-0.486,1.822-0.844,2.768-1.071c0.943-0.227,1.886-0.37,2.826-0.427c0.938-0.059,1.82-0.13,2.645-0.213
			c0.823-0.083,1.557-0.229,2.204-0.439c0.645-0.21,1.158-0.581,1.537-1.114c0.686-0.965,0.843-2.046,0.473-3.246
			c-0.37-1.199-1.228-2.277-2.572-3.233c-2.159-1.534-4.514-1.583-7.063-0.147c-0.326,0.189-0.608,0.305-0.846,0.345
			c-0.24,0.04-0.523-0.057-0.854-0.291l-3.085-2.193c-0.229-0.162-0.371-0.378-0.428-0.647c-0.057-0.271,0.006-0.531,0.186-0.785
			c0.656-0.871,1.574-1.585,2.754-2.142s2.473-0.898,3.882-1.024c1.407-0.126,2.873-0.012,4.396,0.346
			C292.063,66.362,293.498,67.02,294.845,67.977z"/>
	</g>
	<g>
		<path fill="#69BFFF" d="M280.991,90.688c0.279,0.199,0.448,0.472,0.508,0.819c0.058,0.348-0.012,0.661-0.21,0.94l-2.382,3.351
			c-0.199,0.28-0.472,0.449-0.819,0.507c-0.348,0.06-0.661-0.011-0.94-0.209l-3.274-2.328c-0.28-0.199-0.448-0.471-0.507-0.818
			c-0.06-0.349,0.011-0.661,0.21-0.94l2.382-3.352c0.198-0.279,0.47-0.448,0.819-0.507c0.347-0.059,0.659,0.011,0.939,0.21
			L280.991,90.688z M294.845,67.977c1.192,0.847,2.237,1.838,3.132,2.971c0.895,1.134,1.552,2.335,1.966,3.604
			c0.416,1.271,0.552,2.57,0.408,3.901c-0.144,1.332-0.657,2.619-1.542,3.863c-0.722,1.016-1.508,1.785-2.356,2.308
			c-0.85,0.524-1.734,0.908-2.653,1.152c-0.92,0.245-1.848,0.407-2.782,0.488c-0.938,0.08-1.823,0.156-2.659,0.23
			s-1.623,0.213-2.358,0.416c-0.737,0.202-1.342,0.557-1.814,1.061c-0.25,0.243-0.535,0.402-0.857,0.479s-0.622,0.016-0.901-0.183
			l-2.895-2.058c-0.279-0.198-0.455-0.476-0.526-0.832s0.004-0.665,0.229-0.927c0.756-0.954,1.582-1.675,2.483-2.162
			c0.9-0.486,1.822-0.844,2.768-1.071c0.943-0.227,1.886-0.37,2.826-0.427c0.938-0.059,1.82-0.13,2.645-0.213
			c0.823-0.083,1.557-0.229,2.204-0.439c0.645-0.21,1.158-0.581,1.537-1.114c0.686-0.965,0.843-2.046,0.473-3.246
			c-0.37-1.199-1.228-2.277-2.572-3.233c-2.159-1.534-4.514-1.583-7.063-0.147c-0.326,0.189-0.608,0.305-0.846,0.345
			c-0.24,0.04-0.523-0.057-0.854-0.291l-3.085-2.193c-0.229-0.162-0.371-0.378-0.428-0.647c-0.057-0.271,0.006-0.531,0.186-0.785
			c0.656-0.871,1.574-1.585,2.754-2.142s2.473-0.898,3.882-1.024c1.407-0.126,2.873-0.012,4.396,0.346
			C292.063,66.362,293.498,67.02,294.845,67.977z"/>
	</g>
</g>
<g id="Character">
	<g id="XMLID_285_">
		<path id="XMLID_286_" fill="#263238" d="M206.525,179.212h-35.526V93.127c0-15.567,12.62-28.188,28.188-28.188h3.283
			c15.567,0,28.188,12.62,28.188,28.188v61.955C230.657,168.409,219.853,179.212,206.525,179.212z"/>
	</g>
	<g id="XMLID_2226_">
		<g id="XMLID_283_">
			<path id="XMLID_284_" fill="#263238" d="M167.545,386.439c-0.292,2.162-0.913,4.686-1.029,10.805
				c-0.125,6.558-1.33,8.886-1.488,14.269c-0.183,6.15,0.879,8.452,3.375,11.908c2.496,3.457,9.046,6.594,11.814,0.75
				c2.802-5.914,2.412-9.67,1.527-15.704c-0.915-6.237-1.031-9.682-1.562-14.438c-0.467-4.193-1.027-7.378-1.027-7.378
				L167.545,386.439z"/>
			<path id="XMLID_2235_" fill="#FFA8A7" d="M186.162,342.87l-21.604-0.392c0.321,14.422,2.613,30.43,2.987,43.961
				c0.07,2.547-0.064,19.793,0.896,25.034c1.444,7.874,10.79,6.811,11.286,2.099s-0.602-24.845-0.572-26.922
				c-0.082-8.678,3.985-23.327,6.118-38.905C185.378,346.979,186.063,343.616,186.162,342.87z"/>
		</g>
		<g id="XMLID_266_">
			<path id="XMLID_282_" fill="#263238" d="M213.914,375.217c0,0-0.853-0.458-1.029,0.452c-0.209,1.083-0.521,3.315-0.971,5.093
				c-0.625,2.47-1.145,6.541-0.771,8.554c0.375,2.014,5.069,4.605,8.116,5.541c4.496,1.38,7.58,3.635,10.044,5.953
				c3.018,2.84,9.53,5.524,13.966,5.492c5.249-0.038,8.907-1.748,10.636-4.558c1.806-2.935-1.576-3.15-7.574-7.042
				c-1.362-0.884-2.912-1.883-4.656-3.022c-9.502-6.207-12.981-9.533-15.668-15.741L213.914,375.217z"/>
			<path id="XMLID_269_" fill="#FFA8A7" d="M226.082,371.375c-0.16-4.465,2.902-42.346,2.902-42.346l-20.518,9.353
				c4.395,26.224,5.33,32.407,5.408,36.698l0,0c-0.034,0.1-0.122,0.464-0.116,1.099c0.019,5.095,5.768,7.842,10.253,11.239
				c1.772,1.341,6.924,5.303,12.13,7.919c3.259,1.638,9.876,1.787,10.696-0.31c-5.458-4.168-13.396-10.405-17.737-15.165
				C227.029,377.588,226.242,375.84,226.082,371.375z"/>
		</g>
		<path id="XMLID_261_" fill="#455A64" d="M173.411,202.157c-7.876,17.297-7.875,30.674-6.574,52.744
			c1.194,20.245,3.098,38.067,3.098,38.067c-0.305,3.593-5.298,10.603-5.944,26.478c-0.604,14.842,1.022,33.709,1.022,33.709
			s11.208,6.212,19.496-0.054c0,0,7.997-38.188,10.341-56.767c2.045-16.213,5.599-36.929,5.599-36.929l7.528,36.841
			c0,0-2.864,9.083-3.534,16.002c-1.059,10.928,5.053,32.386,5.053,32.386s11.582,3.456,18.653-2.816c0,0,2.646-34.888,3.633-48.053
			c1.321-17.628-1.458-65.351-3.634-90.615L173.411,202.157z"/>
		<path id="XMLID_2227_" fill="#263238" d="M200.449,259.405l3.112-27.732c0,0,13.94-1.863,20.255-7.8
			c0,0-4.745,8.694-16.426,10.381l-4.499,25.805l5.086,36.187L200.449,259.405z"/>
	</g>
	<g id="XMLID_2194_">
		<path id="XMLID_610_" fill="#FFA8A7" d="M256.896,195.343c0.868-8.5,0.835-14.164,0.76-15.252
			c-0.304-4.401-1.091-5.117-7.244-12.915c-8.306-10.527-15.395-19.99-22.894-29.404c-5.353-6.721-10.979-7.755-16.477-7.451
			c-3.842,0.213,3.655,18.683,7.432,29.611l21.551,23.181c0.663,0.915,0.968,2.042,0.857,3.167l-1.323,19.734l6.454,8.633
			C246.011,214.646,255.785,206.219,256.896,195.343z"/>
		<path id="XMLID_2220_" fill="#1890FF" d="M190.281,130.919L190.281,130.919c-4.167,0.287-11.748,0.954-11.748,0.954
			c-4.374,2.441-5.479,4.442-6.293,10.251c-0.346,2.471,1.668,9.065,3.398,18.433l3.283,17.374l-0.356,8.616
			c-1.705,5.257-5.559,11.792-8.954,21.424c16.696,9.318,30.699,9.663,43.398,8.034c9.684-1.243,14.808-3.587,16.516-5.902
			c-0.355-9.515-1.029-15.391-1.194-25.333c-0.069-4.176,0.182-8.388,0.344-13.194c6.497-5.337,6.571-14.212,3.027-19.95
			c-8.233-13.329-16.238-21.721-21.54-21.291L190.281,130.919z"/>
		<path id="XMLID_564_" opacity="0.6" fill="#FFFFFF" d="M190.281,130.919L190.281,130.919c-4.167,0.287-11.748,0.954-11.748,0.954
			c-4.374,2.441-5.479,4.442-6.293,10.251c-0.346,2.471,1.668,9.065,3.398,18.433l3.283,17.374l-0.356,8.616
			c-1.705,5.257-5.559,11.792-8.954,21.424c16.696,9.318,30.699,9.663,43.398,8.034c9.684-1.243,14.808-3.587,16.516-5.902
			c-0.355-9.515-1.029-15.391-1.194-25.333c-0.069-4.176,0.182-8.388,0.344-13.194c6.497-5.337,6.571-14.212,3.027-19.95
			c-8.233-13.329-16.238-21.721-21.54-21.291L190.281,130.919z"/>
		<path opacity="0.1" d="M215.751,171.72c0,0-7.626,5.918-16.329,2.832c-8.703-3.086-9.973-10.694-9.973-10.694
			s-0.924,9.949,10.054,13.342C210.098,180.473,215.751,171.72,215.751,171.72z"/>
		<g id="XMLID_2195_">
			<g id="XMLID_2209_">
				<path fill="#FFA8A7" d="M226.091,103.61c-0.328,14.438-5.014,18.006-7.362,19.031c-2.348,1.025-6.88,0.4-11.279-0.328v8.665
					c0,0,5.076,5.321,4.696,9.29c-0.39,3.978-7.978,4.419-13.679,0.533c-4.161-2.834-7.133-6.074-8.429-7.611
					c-0.472-0.559-0.727-1.261-0.727-1.993v-20.388c0,0-2.41,2.553-6.676-0.369c-4.255-2.912-4.624-8.347-2.02-11.423
					c1.856-2.184,6.573-2.338,8.839,1.056c1.271,2.492,1.445,4.994,2.871,3.958c3.804-2.738,1.764-8.962,6.357-12.038
					c0.01,0,0.01-0.01,0.021-0.01c1.374-0.738,2.932-1.436,4.675-2.041c8.193-2.83,15.289-5.209,17.001-10.808
					C223.609,81.051,226.491,86.578,226.091,103.61z"/>
			</g>
			<circle fill="#B16668" cx="209.943" cy="114.614" r="1.895"/>
			<g id="XMLID_2206_">
				<path id="XMLID_2207_" fill="#263238" d="M208.675,101.421c0.058,1.145-0.789,2.114-1.89,2.167
					c-1.102,0.052-2.041-0.833-2.099-1.978c-0.058-1.144,0.789-2.114,1.891-2.167C207.678,99.392,208.618,100.277,208.675,101.421z"
					/>
			</g>
			<g id="XMLID_2200_">
				<path id="XMLID_2201_" fill="#263238" d="M223.83,101.618c0.053,1.041-0.717,1.922-1.719,1.969
					c-1.101,0.053-1.85-0.653-1.908-1.797c-0.052-1.04,0.717-1.922,1.719-1.97C222.924,99.773,223.778,100.578,223.83,101.618z"/>
			</g>
			<g>
				<path fill="#455A64" d="M206.107,106.563c-3.586,0-6.504-2.918-6.504-6.504c0-4.422,4.557-4.422,6.504-4.422
					s6.504,0,6.504,4.422C212.611,103.645,209.692,106.563,206.107,106.563z M206.107,96.662c-3.942,0-5.479,0.952-5.479,3.396
					c0,3.021,2.458,5.479,5.479,5.479s5.478-2.458,5.478-5.479C211.585,97.614,210.049,96.662,206.107,96.662z"/>
			</g>
			<g>
				<path fill="#455A64" d="M222.618,106.563c-3.586,0-6.503-2.918-6.503-6.504c0-4.422,4.557-4.422,6.503-4.422
					s6.504,0,6.504,4.422C229.122,103.645,226.204,106.563,222.618,106.563z M222.618,96.662c-3.942,0-5.478,0.952-5.478,3.396
					c0,3.021,2.457,5.479,5.478,5.479s5.479-2.458,5.479-5.479C228.096,97.614,226.56,96.662,222.618,96.662z"/>
			</g>
			<g id="XMLID_2198_">
				<polygon id="XMLID_2199_" fill="#F28F8F" points="213.621,97.962 213.941,110.107 220.333,108.127 				"/>
			</g>
			<g id="XMLID_2196_">
				<path id="XMLID_2197_" fill="#F28F8F" d="M207.445,122.31c-4.643-0.609-14.195-3.353-15.684-7.129c0,0,0.496,2.374,3.35,4.819
					c2.853,2.445,12.334,5.2,12.334,5.2V122.31z"/>
			</g>
			<path id="XMLID_405_" fill="#263238" d="M207.666,92.064l-4.236,2.582c-0.694-1.219-0.308-2.786,0.862-3.498
				C205.461,90.435,206.972,90.845,207.666,92.064z"/>
			<path id="XMLID_382_" fill="#263238" d="M224.92,94.943l-4.719-1.648c0.41-1.331,1.798-2.04,3.102-1.585
				C224.606,92.164,225.33,93.612,224.92,94.943z"/>
			<g>
				<path fill="#455A64" d="M212.097,100.576c-0.284,0-0.512-0.234-0.512-0.518c0-0.832,1.646-1.37,3.123-1.37
					s2.432,0.538,2.432,1.37c0,0.283-0.229,0.513-0.513,0.513c-0.284,0-0.513-0.229-0.513-0.513
					c-0.046-0.094-0.519-0.345-1.406-0.345s-2.051,0.25-2.1,0.354C212.608,100.351,212.38,100.576,212.097,100.576z"/>
			</g>
			<g>
				<path fill="#455A64" d="M200.133,100.143c-0.019,0-0.038-0.001-0.058-0.003l-11.431-1.042c-0.206-0.189-0.746-0.749-1.873-1.216
					l13.418,1.238c0.281,0.031,0.483,0.286,0.453,0.567C200.612,99.948,200.39,100.143,200.133,100.143z"/>
			</g>
		</g>
	</g>
	<g>
		<path fill="#FFA8A7" d="M153.203,112.056c3.738-4.995,6.287-8.768,9.699-13.049c1.938-2.431,3.176-4.166,5.04-6.66
			c1.283-1.717,2.035-3.165,3.457-3.697c1.601-0.599,3.143-1.783,4.172-2.864c0.735-0.773,1.337-1.661,1.973-2.518
			c2.136-2.879,4.688-5.448,7.551-7.606c3.009-2.268,6.352-3.996,9.439-6.156c1.842-1.289,3.817-3.43,1.576-5.429
			c-0.669-0.597-1.52-0.953-2.395-1.144c-5.441-1.189-10.189,0.687-15.512,2.048c-2.313,0.591-4.588,1.332-6.776,2.289
			c-1.062,0.464-2.121,0.969-3.001,1.722c-1.372,1.174-2.193,2.845-3.084,4.415c-2.393,4.216-7.35,7.937-10.838,11.218
			c-4.093,3.85-7.751,7.379-12.42,11.627c-4.202,3.823-8.313,7.348-12.167,11.523c-3.188,3.454-2.028,6.156-1.574,7.089
			c2.598,5.344,5.507,7.26,8.982,10.57c6.019,5.734,26.751,22.228,33.629,27.672c1.472,1.166,2.628,2.676,3.371,4.4l1.313,3.049
			c7.84,1.443,13.071-10.328,6.578-24.5c-1.053-2.299-2.724-4.256-4.767-5.746C169.264,124.341,153.203,112.056,153.203,112.056z"/>
		<path fill="#F28F8F" d="M153.203,112.056c0,0-3.545,4.739-9.582,6.595c0,0,5.001,1.276,11.846-4.868L153.203,112.056z"/>
	</g>
	<g id="XMLID_2739_">
		<g id="XMLID_2725_">
			<g id="XMLID_2695_">
				<path id="XMLID_563_" fill="#455A64" d="M254.861,184.908l0.025,0.002l-1.281-1.105l-0.001,0.017
					c-0.289-0.232-0.738-0.305-1.318-0.147l-13.885,3.777c-1.287,0.35-2.684,1.655-3.12,2.916l-9.992,28.829
					c-0.231,0.668-0.139,1.183,0.184,1.473l-0.011,0.004l1.322,1.139l0-0.017c0.288,0.241,0.743,0.316,1.331,0.157l13.885-3.776
					c1.287-0.35,2.684-1.655,3.12-2.916c1.963-5.667,8.03-23.164,9.992-28.83C255.357,185.719,255.236,185.185,254.861,184.908z"/>
				<path id="XMLID_2696_" fill="#1890FF" d="M226.574,220.303l9.993-28.829c0.436-1.26,1.833-2.565,3.12-2.915l13.885-3.777
					c1.286-0.35,1.976,0.388,1.539,1.648c-1.962,5.666-8.029,23.163-9.992,28.83c-0.437,1.26-1.833,2.566-3.121,2.916l-13.885,3.776
					C226.827,222.301,226.138,221.563,226.574,220.303z"/>
				<path id="XMLID_2726_" fill="#37474F" d="M238.175,189.359c-0.723,0.571-1.344,1.357-1.611,2.118l-9.995,28.82
					c-0.216,0.647-0.153,1.154,0.139,1.446l-1.243-1.065l0.013-0.013c-0.33-0.292-0.419-0.799-0.19-1.472l9.995-28.833
					c0.241-0.71,0.812-1.433,1.484-2.004L238.175,189.359z"/>
			</g>
			<path id="XMLID_2549_" fill="#F28F8F" d="M251.047,198.045c-0.979,2.937-4.469,4.896-10.204,6.255
				c-5.734,1.359-8.912,7.449-7.985,9.302c0.927,1.853,10.194,3.574,13.901,3.045c3.707-0.53,7.436-5.888,8.558-7.546
				c1.122-1.658,2.43-13.239,1.238-14.827c-1.191-1.589-3.695-1.345-3.695-1.345L251.047,198.045z"/>
		</g>
	</g>
</g>
</svg>
